<?xml version="1.0" encoding="UTF-8" standalone="no"?>
<!-- Created with Inkscape (http://www.inkscape.org/) -->

<svg
   xmlns:dc="http://purl.org/dc/elements/1.1/"
   xmlns:cc="http://creativecommons.org/ns#"
   xmlns:rdf="http://www.w3.org/1999/02/22-rdf-syntax-ns#"
   xmlns:svg="http://www.w3.org/2000/svg"
   xmlns="http://www.w3.org/2000/svg"
   xmlns:sodipodi="http://sodipodi.sourceforge.net/DTD/sodipodi-0.dtd"
   xmlns:inkscape="http://www.inkscape.org/namespaces/inkscape"
   version="1.1"
   id="svg2"
   xml:space="preserve"
   width="122.52"
   height="122.52"
   viewBox="0 0 122.52 122.52"
   sodipodi:docname="git-qui.svg"
   inkscape:version="0.92.4 5da689c313, 2019-01-14"><metadata
     id="metadata8"><rdf:RDF><cc:Work
         rdf:about=""><dc:format>image/svg+xml</dc:format><dc:type
           rdf:resource="http://purl.org/dc/dcmitype/StillImage" /><dc:title /></cc:Work></rdf:RDF></metadata><defs
     id="defs6" /><sodipodi:namedview
     pagecolor="#ffffff"
     bordercolor="#666666"
     borderopacity="1"
     objecttolerance="10"
     gridtolerance="10"
     guidetolerance="10"
     inkscape:pageopacity="0"
     inkscape:pageshadow="2"
     inkscape:window-width="1920"
     inkscape:window-height="1031"
     id="namedview4"
     showgrid="false"
     inkscape:zoom="2.724081"
     inkscape:cx="21.189863"
     inkscape:cy="58.501637"
     inkscape:window-x="0"
     inkscape:window-y="100"
     inkscape:window-maximized="1"
     inkscape:current-layer="g12" /><g
     id="g10"
     inkscape:groupmode="layer"
     inkscape:label="ink_ext_XXXXXX"
     transform="matrix(1.3333333,0,0,-1.3333333,0,122.52)"><g
   id="g12"
   transform="scale(0.1)"
   style="fill:#41cd52;fill-opacity:1"><path
     d="M 333.363,818.21103 439.039,712.535 c 24.559,8.29301 52.723,2.727 72.293,-16.847 19.688,-19.696 25.207,-48.102 16.699,-72.75 L 629.887,521.094 c 24.648,8.496 53.066,3.00401 72.754,-16.711 27.5,-27.492 27.5,-72.05899 0,-99.574 -27.52,-27.516 -72.078,-27.516 -99.61,0 -20.683,20.703 -25.801,51.097 -15.312,76.582 l -95,94.992 V 326.41401 c 6.699,-3.32001 13.027,-7.74201 18.613,-13.31201 27.5,-27.497 27.5,-72.059 0,-99.598 -27.5,-27.488 -72.09,-27.488 -99.57,0 -27.5,27.539 -27.5,72.101 0,99.598 6.797,6.789 14.668,11.925 23.066,15.363 v 252.281 c -8.398,3.438 -16.25,8.531 -23.066,15.367 -20.828,20.82101 -25.84,51.395 -15.157,76.977 L 292.426,777.28503"
     style="fill:#ffffff;fill-opacity:1;fill-rule:nonzero;stroke:none;stroke-width:0.99999994"
     id="path14-3"
     inkscape:connector-curvature="0"
     sodipodi:nodetypes="cccccccccccccccccccc" /><path
     d="M 901.547,500.352 500.355,901.527 c -23.093,23.11 -60.566,23.11 -83.691,0 L 333.363,818.211 439.039,712.535 c 24.559,8.293 52.723,2.727 72.293,-16.847 19.688,-19.696 25.207,-48.102 16.699,-72.75 L 629.887,521.094 c 24.648,8.496 53.066,3.004 72.754,-16.711 27.5,-27.492 27.5,-72.059 0,-99.574 -27.52,-27.516 -72.078,-27.516 -99.61,0 -20.683,20.703 -25.801,51.097 -15.312,76.582 l -95,94.992 V 326.414 c 6.699,-3.32 13.027,-7.742 18.613,-13.312 27.5,-27.497 27.5,-72.059 0,-99.598 -27.5,-27.488 -72.09,-27.488 -99.57,0 -27.5,27.539 -27.5,72.101 0,99.598 6.797,6.789 14.668,11.925 23.066,15.363 v 252.281 c -8.398,3.438 -16.25,8.531 -23.066,15.367 -20.828,20.821 -25.84,51.395 -15.157,76.977 L 292.426,777.285 17.3281,502.211 c -23.10544,-23.129 -23.10544,-60.602 0,-83.711 L 418.539,17.3242 c 23.098,-23.10545 60.559,-23.10545 83.691,0 L 901.547,416.641 c 23.117,23.113 23.117,60.605 0,83.711"
     style="fill:#41cd52;fill-opacity:1;fill-rule:nonzero;stroke:none"
     id="path14"
     inkscape:connector-curvature="0" /></g><text
   xml:space="preserve"
   style="font-style:normal;font-weight:normal;font-size:30px;line-height:1.25;font-family:sans-serif;letter-spacing:0px;word-spacing:0px;fill:#000000;fill-opacity:1;stroke:none;stroke-width:0.75px;stroke-linecap:butt;stroke-linejoin:miter;stroke-opacity:1"
   x="-96.562378"
   y="-107.46458"
   id="text3760"
   transform="scale(1,-1)"><tspan
     sodipodi:role="line"
     id="tspan3758"
     x="-96.562378"
     y="-80.921608"
     style="stroke-width:0.75px" /></text>


<g
   aria-label="qui"
   transform="matrix(0.70710678,-0.70710678,-0.70710678,-0.70710678,0,0)"
   style="font-style:normal;font-weight:normal;font-size:35.5900116px;line-height:1.25;font-family:sans-serif;letter-spacing:0px;word-spacing:0px;fill:#000000;fill-opacity:1;stroke:none;stroke-width:0.88975024px;stroke-linecap:butt;stroke-linejoin:miter;stroke-opacity:1"
   id="text4573"><path
     d="m -17.087437,-32.845573 h 2.918381 v -24.592698 h -2.348941 l -0.24913,1.921861 h -0.10677 c -1.637141,-1.530371 -3.238691,-2.348941 -5.338502,-2.348941 -4.092851,0 -7.865392,3.487821 -7.865392,9.111043 0,5.765582 2.989561,9.039863 7.473902,9.039863 2.135401,0 4.128441,-1.174471 5.552042,-2.633661 h 0.10677 l -0.14236,3.203101 z m -4.875832,-9.324583 c -3.203101,0 -5.089371,-2.491301 -5.089371,-6.619742 0,-3.950491 2.42012,-6.619742 5.409681,-6.619742 1.494781,0 2.989561,0.56944 4.555522,2.02863 v 8.612783 c -1.530371,1.708321 -3.167511,2.598071 -4.875832,2.598071 z"
     style="font-style:normal;font-variant:normal;font-weight:normal;font-stretch:normal;font-size:35.5900116px;font-family:'Source Code Pro';-inkscape-font-specification:'Source Code Pro, Normal';font-variant-ligatures:normal;font-variant-caps:normal;font-variant-numeric:normal;font-feature-settings:normal;text-align:start;writing-mode:lr-tb;text-anchor:start;stroke-width:0.88975024px"
     id="path837" /><path
     d="m -2.1179441,-39.714445 c 2.66925089,0 4.6978816,-1.423601 6.4417921,-3.452231 h 0.1423601 l 0.2491301,3.025151 H 7.0998689 V -57.438271 H 4.181488 v 11.993834 c -1.9218607,2.242171 -3.38105113,3.203101 -5.3740918,3.203101 -2.8827909,0 -3.9860813,-1.56596 -3.9860813,-4.840242 V -57.438271 H -8.132656 v 10.748184 c 0,4.555521 1.8862706,6.975642 6.0147119,6.975642 z"
     style="font-style:normal;font-variant:normal;font-weight:normal;font-stretch:normal;font-size:35.5900116px;font-family:'Source Code Pro';-inkscape-font-specification:'Source Code Pro, Normal';font-variant-ligatures:normal;font-variant-caps:normal;font-variant-numeric:normal;font-feature-settings:normal;text-align:start;writing-mode:lr-tb;text-anchor:start;stroke-width:0.88975024px"
     id="path839" /><path
     d="m 21.713462,-40.141525 h 2.918381 V -57.438271 H 13.670119 v 2.384531 h 8.043343 z m 1.13888,-20.926927 c 1.316831,0 2.348941,-0.88975 2.348941,-2.277761 0,-1.35242 -1.03211,-2.277761 -2.348941,-2.277761 -1.31683,0 -2.348941,0.925341 -2.348941,2.277761 0,1.388011 1.032111,2.277761 2.348941,2.277761 z"
     style="font-style:normal;font-variant:normal;font-weight:normal;font-stretch:normal;font-size:35.5900116px;font-family:'Source Code Pro';-inkscape-font-specification:'Source Code Pro, Normal';font-variant-ligatures:normal;font-variant-caps:normal;font-variant-numeric:normal;font-feature-settings:normal;text-align:start;writing-mode:lr-tb;text-anchor:start;stroke-width:0.88975024px"
     id="path841" /></g>
</g></svg>